<mxfile host="app.diagrams.net" modified="2021-06-21T08:27:45.333Z" agent="5.0 (Windows NT 10.0; Win64; x64) AppleWebKit/537.36 (KHTML, like Gecko) Chrome/91.0.4472.114 Safari/537.36" etag="-bHNz-thyB1AheZj0gOq" version="14.8.0" type="github">
  <diagram id="jfkQhyejrhXaHH5mvHCT" name="Page-1">
    <mxGraphModel dx="1221" dy="681" grid="1" gridSize="10" guides="1" tooltips="1" connect="1" arrows="1" fold="1" page="1" pageScale="1" pageWidth="827" pageHeight="1169" math="0" shadow="0">
      <root>
        <mxCell id="0" />
        <mxCell id="1" parent="0" />
        <mxCell id="JLDk4aU4ZZ1QfcMMUEGg-1" value="" style="ellipse;whiteSpace=wrap;html=1;aspect=fixed;" vertex="1" parent="1">
          <mxGeometry x="334" y="60" width="80" height="80" as="geometry" />
        </mxCell>
        <mxCell id="JLDk4aU4ZZ1QfcMMUEGg-2" value="Авторизация/ Регистрация" style="text;html=1;strokeColor=none;fillColor=none;align=center;verticalAlign=middle;whiteSpace=wrap;rounded=0;" vertex="1" parent="1">
          <mxGeometry x="354" y="85" width="40" height="30" as="geometry" />
        </mxCell>
        <mxCell id="JLDk4aU4ZZ1QfcMMUEGg-4" value="" style="rhombus;whiteSpace=wrap;html=1;" vertex="1" parent="1">
          <mxGeometry x="280" y="200" width="190" height="120" as="geometry" />
        </mxCell>
        <mxCell id="JLDk4aU4ZZ1QfcMMUEGg-5" value="Настроено ли колесо жизни, цели и привычка?" style="text;html=1;strokeColor=none;fillColor=none;align=center;verticalAlign=middle;whiteSpace=wrap;rounded=0;" vertex="1" parent="1">
          <mxGeometry x="334" y="235" width="86" height="50" as="geometry" />
        </mxCell>
        <mxCell id="JLDk4aU4ZZ1QfcMMUEGg-8" value="" style="endArrow=classic;html=1;exitX=0.5;exitY=1;exitDx=0;exitDy=0;entryX=0.5;entryY=0;entryDx=0;entryDy=0;" edge="1" parent="1" source="JLDk4aU4ZZ1QfcMMUEGg-1" target="JLDk4aU4ZZ1QfcMMUEGg-4">
          <mxGeometry width="50" height="50" relative="1" as="geometry">
            <mxPoint x="390" y="280" as="sourcePoint" />
            <mxPoint x="440" y="230" as="targetPoint" />
          </mxGeometry>
        </mxCell>
        <mxCell id="JLDk4aU4ZZ1QfcMMUEGg-32" style="edgeStyle=orthogonalEdgeStyle;rounded=0;orthogonalLoop=1;jettySize=auto;html=1;exitX=0.5;exitY=1;exitDx=0;exitDy=0;entryX=0;entryY=0.5;entryDx=0;entryDy=0;" edge="1" parent="1" source="JLDk4aU4ZZ1QfcMMUEGg-10" target="JLDk4aU4ZZ1QfcMMUEGg-28">
          <mxGeometry relative="1" as="geometry" />
        </mxCell>
        <mxCell id="JLDk4aU4ZZ1QfcMMUEGg-10" value="" style="rounded=0;whiteSpace=wrap;html=1;" vertex="1" parent="1">
          <mxGeometry x="30" y="216.25" width="120" height="87.5" as="geometry" />
        </mxCell>
        <mxCell id="JLDk4aU4ZZ1QfcMMUEGg-11" value="Продолжать работу по заданным целям, привычкам и колесу" style="text;html=1;strokeColor=none;fillColor=none;align=center;verticalAlign=middle;whiteSpace=wrap;rounded=0;" vertex="1" parent="1">
          <mxGeometry x="40" y="246.25" width="100" height="20" as="geometry" />
        </mxCell>
        <mxCell id="JLDk4aU4ZZ1QfcMMUEGg-12" value="" style="endArrow=classic;html=1;exitX=0;exitY=0.5;exitDx=0;exitDy=0;entryX=1;entryY=0.5;entryDx=0;entryDy=0;" edge="1" parent="1" source="JLDk4aU4ZZ1QfcMMUEGg-4" target="JLDk4aU4ZZ1QfcMMUEGg-10">
          <mxGeometry width="50" height="50" relative="1" as="geometry">
            <mxPoint x="390" y="330" as="sourcePoint" />
            <mxPoint x="440" y="280" as="targetPoint" />
          </mxGeometry>
        </mxCell>
        <mxCell id="JLDk4aU4ZZ1QfcMMUEGg-13" value="Да" style="text;html=1;strokeColor=none;fillColor=none;align=center;verticalAlign=middle;whiteSpace=wrap;rounded=0;" vertex="1" parent="1">
          <mxGeometry x="190" y="232.5" width="40" height="20" as="geometry" />
        </mxCell>
        <mxCell id="JLDk4aU4ZZ1QfcMMUEGg-14" value="" style="rounded=0;whiteSpace=wrap;html=1;" vertex="1" parent="1">
          <mxGeometry x="620" y="213.13" width="130" height="93.75" as="geometry" />
        </mxCell>
        <mxCell id="JLDk4aU4ZZ1QfcMMUEGg-15" value="" style="endArrow=classic;html=1;exitX=1;exitY=0.5;exitDx=0;exitDy=0;entryX=0;entryY=0.5;entryDx=0;entryDy=0;" edge="1" parent="1" source="JLDk4aU4ZZ1QfcMMUEGg-4" target="JLDk4aU4ZZ1QfcMMUEGg-14">
          <mxGeometry width="50" height="50" relative="1" as="geometry">
            <mxPoint x="390" y="330" as="sourcePoint" />
            <mxPoint x="440" y="280" as="targetPoint" />
          </mxGeometry>
        </mxCell>
        <mxCell id="JLDk4aU4ZZ1QfcMMUEGg-16" value="Нет" style="text;html=1;strokeColor=none;fillColor=none;align=center;verticalAlign=middle;whiteSpace=wrap;rounded=0;" vertex="1" parent="1">
          <mxGeometry x="500" y="232.5" width="40" height="20" as="geometry" />
        </mxCell>
        <mxCell id="JLDk4aU4ZZ1QfcMMUEGg-17" value="Создать сценарий изменения жизни" style="text;html=1;strokeColor=none;fillColor=none;align=center;verticalAlign=middle;whiteSpace=wrap;rounded=0;" vertex="1" parent="1">
          <mxGeometry x="665" y="250" width="40" height="20" as="geometry" />
        </mxCell>
        <mxCell id="JLDk4aU4ZZ1QfcMMUEGg-18" value="" style="rounded=0;whiteSpace=wrap;html=1;" vertex="1" parent="1">
          <mxGeometry x="620" y="360" width="120" height="60" as="geometry" />
        </mxCell>
        <mxCell id="JLDk4aU4ZZ1QfcMMUEGg-19" value="Настроить колесо жизни" style="text;html=1;strokeColor=none;fillColor=none;align=center;verticalAlign=middle;whiteSpace=wrap;rounded=0;" vertex="1" parent="1">
          <mxGeometry x="655" y="380" width="40" height="20" as="geometry" />
        </mxCell>
        <mxCell id="JLDk4aU4ZZ1QfcMMUEGg-21" value="" style="rounded=0;whiteSpace=wrap;html=1;" vertex="1" parent="1">
          <mxGeometry x="620" y="480" width="120" height="60" as="geometry" />
        </mxCell>
        <mxCell id="JLDk4aU4ZZ1QfcMMUEGg-22" value="Поставить цели по каждому аспекту колса жизни" style="text;html=1;strokeColor=none;fillColor=none;align=center;verticalAlign=middle;whiteSpace=wrap;rounded=0;" vertex="1" parent="1">
          <mxGeometry x="627" y="500" width="106" height="20" as="geometry" />
        </mxCell>
        <mxCell id="JLDk4aU4ZZ1QfcMMUEGg-23" value="" style="endArrow=classic;html=1;exitX=0.5;exitY=1;exitDx=0;exitDy=0;" edge="1" parent="1" source="JLDk4aU4ZZ1QfcMMUEGg-14">
          <mxGeometry width="50" height="50" relative="1" as="geometry">
            <mxPoint x="390" y="340" as="sourcePoint" />
            <mxPoint x="685" y="360" as="targetPoint" />
          </mxGeometry>
        </mxCell>
        <mxCell id="JLDk4aU4ZZ1QfcMMUEGg-24" value="" style="endArrow=classic;html=1;exitX=0.5;exitY=1;exitDx=0;exitDy=0;entryX=0.5;entryY=0;entryDx=0;entryDy=0;" edge="1" parent="1" source="JLDk4aU4ZZ1QfcMMUEGg-18" target="JLDk4aU4ZZ1QfcMMUEGg-21">
          <mxGeometry width="50" height="50" relative="1" as="geometry">
            <mxPoint x="390" y="340" as="sourcePoint" />
            <mxPoint x="440" y="290" as="targetPoint" />
          </mxGeometry>
        </mxCell>
        <mxCell id="JLDk4aU4ZZ1QfcMMUEGg-25" value="" style="rounded=0;whiteSpace=wrap;html=1;" vertex="1" parent="1">
          <mxGeometry x="630" y="600" width="115" height="60" as="geometry" />
        </mxCell>
        <mxCell id="JLDk4aU4ZZ1QfcMMUEGg-26" value="Поставить себе привычку месяца" style="text;html=1;strokeColor=none;fillColor=none;align=center;verticalAlign=middle;whiteSpace=wrap;rounded=0;" vertex="1" parent="1">
          <mxGeometry x="650" y="620" width="70" height="20" as="geometry" />
        </mxCell>
        <mxCell id="JLDk4aU4ZZ1QfcMMUEGg-27" value="" style="endArrow=classic;html=1;exitX=0.5;exitY=1;exitDx=0;exitDy=0;entryX=0.442;entryY=-0.003;entryDx=0;entryDy=0;entryPerimeter=0;" edge="1" parent="1" source="JLDk4aU4ZZ1QfcMMUEGg-21" target="JLDk4aU4ZZ1QfcMMUEGg-25">
          <mxGeometry width="50" height="50" relative="1" as="geometry">
            <mxPoint x="390" y="410" as="sourcePoint" />
            <mxPoint x="440" y="360" as="targetPoint" />
          </mxGeometry>
        </mxCell>
        <mxCell id="JLDk4aU4ZZ1QfcMMUEGg-28" value="" style="rounded=0;whiteSpace=wrap;html=1;" vertex="1" parent="1">
          <mxGeometry x="630" y="720" width="120" height="60" as="geometry" />
        </mxCell>
        <mxCell id="JLDk4aU4ZZ1QfcMMUEGg-29" value="Календарь для планирования дел&lt;br&gt;" style="text;html=1;strokeColor=none;fillColor=none;align=center;verticalAlign=middle;whiteSpace=wrap;rounded=0;" vertex="1" parent="1">
          <mxGeometry x="670" y="740" width="40" height="20" as="geometry" />
        </mxCell>
        <mxCell id="JLDk4aU4ZZ1QfcMMUEGg-31" value="" style="endArrow=classic;html=1;exitX=0.445;exitY=1.05;exitDx=0;exitDy=0;exitPerimeter=0;" edge="1" parent="1" source="JLDk4aU4ZZ1QfcMMUEGg-25">
          <mxGeometry width="50" height="50" relative="1" as="geometry">
            <mxPoint x="390" y="590" as="sourcePoint" />
            <mxPoint x="682" y="720" as="targetPoint" />
          </mxGeometry>
        </mxCell>
        <mxCell id="JLDk4aU4ZZ1QfcMMUEGg-38" style="edgeStyle=orthogonalEdgeStyle;rounded=0;orthogonalLoop=1;jettySize=auto;html=1;exitX=0.5;exitY=1;exitDx=0;exitDy=0;entryX=0.5;entryY=0;entryDx=0;entryDy=0;" edge="1" parent="1" source="JLDk4aU4ZZ1QfcMMUEGg-33" target="JLDk4aU4ZZ1QfcMMUEGg-35">
          <mxGeometry relative="1" as="geometry" />
        </mxCell>
        <mxCell id="JLDk4aU4ZZ1QfcMMUEGg-41" style="edgeStyle=orthogonalEdgeStyle;rounded=0;orthogonalLoop=1;jettySize=auto;html=1;exitX=1;exitY=0.5;exitDx=0;exitDy=0;entryX=0;entryY=0.25;entryDx=0;entryDy=0;" edge="1" parent="1" source="JLDk4aU4ZZ1QfcMMUEGg-33" target="JLDk4aU4ZZ1QfcMMUEGg-28">
          <mxGeometry relative="1" as="geometry" />
        </mxCell>
        <mxCell id="JLDk4aU4ZZ1QfcMMUEGg-33" value="Личный кабинет" style="rounded=0;whiteSpace=wrap;html=1;" vertex="1" parent="1">
          <mxGeometry x="314" y="380" width="120" height="60" as="geometry" />
        </mxCell>
        <mxCell id="JLDk4aU4ZZ1QfcMMUEGg-39" style="edgeStyle=orthogonalEdgeStyle;rounded=0;orthogonalLoop=1;jettySize=auto;html=1;exitX=0.5;exitY=1;exitDx=0;exitDy=0;" edge="1" parent="1" source="JLDk4aU4ZZ1QfcMMUEGg-35" target="JLDk4aU4ZZ1QfcMMUEGg-36">
          <mxGeometry relative="1" as="geometry" />
        </mxCell>
        <mxCell id="JLDk4aU4ZZ1QfcMMUEGg-35" value="Изменять цели" style="rounded=0;whiteSpace=wrap;html=1;" vertex="1" parent="1">
          <mxGeometry x="314" y="480" width="120" height="60" as="geometry" />
        </mxCell>
        <mxCell id="JLDk4aU4ZZ1QfcMMUEGg-40" style="edgeStyle=orthogonalEdgeStyle;rounded=0;orthogonalLoop=1;jettySize=auto;html=1;exitX=0.5;exitY=1;exitDx=0;exitDy=0;entryX=0.5;entryY=0;entryDx=0;entryDy=0;" edge="1" parent="1" source="JLDk4aU4ZZ1QfcMMUEGg-36" target="JLDk4aU4ZZ1QfcMMUEGg-37">
          <mxGeometry relative="1" as="geometry" />
        </mxCell>
        <mxCell id="JLDk4aU4ZZ1QfcMMUEGg-36" value="Изменять колесо жизни" style="rounded=0;whiteSpace=wrap;html=1;" vertex="1" parent="1">
          <mxGeometry x="315" y="560" width="120" height="60" as="geometry" />
        </mxCell>
        <mxCell id="JLDk4aU4ZZ1QfcMMUEGg-37" value="Изменять привычку" style="rounded=0;whiteSpace=wrap;html=1;" vertex="1" parent="1">
          <mxGeometry x="314" y="640" width="120" height="60" as="geometry" />
        </mxCell>
      </root>
    </mxGraphModel>
  </diagram>
</mxfile>
